# xmcd
#
# Track frame offsets: 
#        150
#        19562
#        38242
#        51827
#        64592
#        82467
#        97307
#        122072
#        139330
#        160522
#        174725
#        192102
#        211930
#        228205
#        244137
#
# Disc length: 3695 seconds
#
# Revision: 1
# Processed by: cddbd v1.5.2PL0 Copyright (c) Steve Scherf et al.
# Submitted via: ExactAudioCopy v1.0b1
#
DISCID=d00e6d0f
DTITLE=Bob Corritore And Friends - Harmonica Blues
DYEAR=2010
DGENRE=Blues
TTITLE0=What Kind Of Man Is This?
TTITLE1=Tell Me 'Bout It
TTITLE2=Things You Do
TTITLE3=Baby Don't You Tear My Clothes
TTITLE4=1815 West Roosevelt (Instrumental)
TTITLE5=That's All Right
TTITLE6=Tin Pan Alley
TTITLE7=Sundown San Diego
TTITLE8=That's My Baby
TTITLE9=Things Have Changed
TTITLE10=Big Fat Mama
TTITLE11=No More Doggin'
TTITLE12=Bumble Bee
TTITLE13=I Need To Be Be'd With
TTITLE14=6 Bits In Your Dollar
EXTD=
EXTT0=
EXTT1=
EXTT2=
EXTT3=
EXTT4=
EXTT5=
EXTT6=
EXTT7=
EXTT8=
EXTT9=
EXTT10=
EXTT11=
EXTT12=
EXTT13=
EXTT14=
PLAYORDER=
